<mxfile host="Electron" modified="2024-04-19T03:00:23.612Z" agent="Mozilla/5.0 (X11; Linux x86_64) AppleWebKit/537.36 (KHTML, like Gecko) draw.io/24.2.5 Chrome/120.0.6099.109 Electron/28.1.0 Safari/537.36" etag="Yw8pPPVQJ1xPbFL_AI9E" version="24.2.5" type="device">
  <diagram name="第 1 页" id="7BXG10ZhwCvQm0WyhTSX">
    <mxGraphModel dx="655" dy="399" grid="1" gridSize="10" guides="1" tooltips="1" connect="1" arrows="1" fold="1" page="0" pageScale="1" pageWidth="827" pageHeight="1169" math="0" shadow="0">
      <root>
        <mxCell id="0" />
        <mxCell id="1" parent="0" />
        <mxCell id="Fz1l4qbVnCskrNy5iDVP-18" value="&lt;font style=&quot;font-size: 8px;&quot;&gt;Combinatorial&lt;br&gt;Logic&lt;/font&gt;" style="shape=trapezoid;perimeter=trapezoidPerimeter;whiteSpace=wrap;html=1;fixedSize=1;direction=south;" vertex="1" parent="1">
          <mxGeometry x="280" y="440" width="70" height="120" as="geometry" />
        </mxCell>
        <mxCell id="Fz1l4qbVnCskrNy5iDVP-5" value="" style="edgeStyle=orthogonalEdgeStyle;rounded=0;orthogonalLoop=1;jettySize=auto;html=1;startArrow=classic;startFill=1;endArrow=none;endFill=0;labelPosition=center;verticalLabelPosition=top;align=center;verticalAlign=bottom;" edge="1" parent="1">
          <mxGeometry x="0.5" relative="1" as="geometry">
            <mxPoint x="230" y="470" as="targetPoint" />
            <mxPoint x="280" y="470" as="sourcePoint" />
            <Array as="points" />
            <mxPoint as="offset" />
          </mxGeometry>
        </mxCell>
        <mxCell id="Fz1l4qbVnCskrNy5iDVP-8" style="edgeStyle=orthogonalEdgeStyle;rounded=0;orthogonalLoop=1;jettySize=auto;html=1;startArrow=none;startFill=0;endArrow=none;endFill=0;" edge="1" parent="1">
          <mxGeometry relative="1" as="geometry">
            <mxPoint x="350" y="500" as="targetPoint" />
            <mxPoint x="390" y="500" as="sourcePoint" />
            <Array as="points">
              <mxPoint x="370" y="500" />
              <mxPoint x="370" y="500" />
            </Array>
          </mxGeometry>
        </mxCell>
        <mxCell id="Fz1l4qbVnCskrNy5iDVP-10" value="&lt;i&gt;f&lt;/i&gt;" style="text;strokeColor=none;align=center;fillColor=none;html=1;verticalAlign=middle;whiteSpace=wrap;rounded=0;" vertex="1" parent="1">
          <mxGeometry x="310" y="520" width="10" height="10" as="geometry" />
        </mxCell>
        <mxCell id="Fz1l4qbVnCskrNy5iDVP-14" value="&lt;i&gt;state[t] = f(input, state[t-1])&lt;/i&gt;" style="edgeStyle=orthogonalEdgeStyle;rounded=0;orthogonalLoop=1;jettySize=auto;html=1;exitX=1;exitY=0.25;exitDx=0;exitDy=0;exitPerimeter=0;endArrow=none;endFill=0;labelPosition=center;verticalLabelPosition=top;align=center;verticalAlign=bottom;entryX=0.75;entryY=1;entryDx=0;entryDy=0;" edge="1" parent="1" source="Fz1l4qbVnCskrNy5iDVP-12" target="Fz1l4qbVnCskrNy5iDVP-18">
          <mxGeometry relative="1" as="geometry">
            <mxPoint x="230" y="540" as="targetPoint" />
            <Array as="points">
              <mxPoint x="510" y="500" />
              <mxPoint x="510" y="600" />
              <mxPoint x="230" y="600" />
              <mxPoint x="230" y="530" />
            </Array>
          </mxGeometry>
        </mxCell>
        <mxCell id="Fz1l4qbVnCskrNy5iDVP-15" style="edgeStyle=orthogonalEdgeStyle;rounded=0;orthogonalLoop=1;jettySize=auto;html=1;exitX=1;exitY=0.25;exitDx=0;exitDy=0;exitPerimeter=0;" edge="1" parent="1" source="Fz1l4qbVnCskrNy5iDVP-12">
          <mxGeometry relative="1" as="geometry">
            <mxPoint x="560" y="500" as="targetPoint" />
          </mxGeometry>
        </mxCell>
        <mxCell id="Fz1l4qbVnCskrNy5iDVP-12" value="Multiple&lt;br&gt;DFFs" style="verticalLabelPosition=middle;shadow=0;dashed=0;align=center;html=1;verticalAlign=middle;shape=mxgraph.electrical.logic_gates.d_type_flip-flop;labelPosition=center;" vertex="1" parent="1">
          <mxGeometry x="390" y="480" width="100" height="80" as="geometry" />
        </mxCell>
        <mxCell id="Fz1l4qbVnCskrNy5iDVP-16" value="Output" style="text;strokeColor=none;align=center;fillColor=none;html=1;verticalAlign=middle;whiteSpace=wrap;rounded=0;" vertex="1" parent="1">
          <mxGeometry x="560" y="490" width="40" height="20" as="geometry" />
        </mxCell>
        <mxCell id="Fz1l4qbVnCskrNy5iDVP-17" value="Input" style="text;strokeColor=none;align=center;fillColor=none;html=1;verticalAlign=middle;whiteSpace=wrap;rounded=0;" vertex="1" parent="1">
          <mxGeometry x="200" y="460" width="30" height="20" as="geometry" />
        </mxCell>
      </root>
    </mxGraphModel>
  </diagram>
</mxfile>
